<svg width="24" height="18" viewBox="0 0 24 18" fill="none" xmlns="http://www.w3.org/2000/svg">
<path d="M20.317 1.49197C18.787 0.801974 17.147 0.291974 15.432 0.0019736C15.4167 -0.000958481 15.4009 0.000931061 15.3868 0.00738094C15.3726 0.0138308 15.3608 0.0245219 15.353 0.0379736C15.143 0.406974 14.909 0.887974 14.745 1.26797C12.9261 0.99621 11.0769 0.99621 9.25799 1.26797C9.07533 0.846834 8.86934 0.436198 8.64099 0.0379736C8.63325 0.0243563 8.62154 0.0134234 8.60743 0.00663373C8.59331 -0.000155898 8.57746 -0.00247938 8.56199 -2.64894e-05C6.84799 0.289974 5.20799 0.799974 3.67699 1.49097C3.66382 1.4965 3.65265 1.50592 3.64499 1.51797C0.532992 6.09297 -0.320008 10.555 0.0989923 14.961C0.100158 14.9718 0.103508 14.9822 0.108837 14.9917C0.114167 15.0011 0.121364 15.0094 0.129992 15.016C1.94638 16.3384 3.97233 17.3458 6.12299 17.996C6.13798 18.0006 6.15402 18.0006 6.16901 17.9959C6.18399 17.9913 6.19723 17.9823 6.20699 17.97C6.66979 17.351 7.07989 16.6944 7.43299 16.007C7.43789 15.9976 7.44072 15.9872 7.44127 15.9766C7.44183 15.9661 7.44011 15.9555 7.43622 15.9456C7.43233 15.9358 7.42637 15.9268 7.41874 15.9195C7.41111 15.9121 7.40199 15.9065 7.39199 15.903C6.746 15.6597 6.12008 15.3661 5.51999 15.025C5.50921 15.0188 5.50012 15.0101 5.49355 14.9995C5.48698 14.989 5.48312 14.977 5.48233 14.9646C5.48153 14.9522 5.48383 14.9398 5.48901 14.9286C5.49418 14.9173 5.50208 14.9075 5.51199 14.9C5.63799 14.807 5.76399 14.71 5.88399 14.613C5.89479 14.6043 5.9078 14.5987 5.92158 14.5969C5.93535 14.5952 5.94934 14.5973 5.96199 14.603C9.88899 16.367 14.142 16.367 18.023 14.603C18.0357 14.5969 18.0498 14.5946 18.0638 14.5961C18.0778 14.5977 18.091 14.6032 18.102 14.612C18.222 14.71 18.347 14.807 18.474 14.9C18.484 14.9073 18.492 14.917 18.4974 14.9282C18.5027 14.9394 18.5052 14.9517 18.5046 14.9641C18.504 14.9765 18.5004 14.9885 18.494 14.9991C18.4876 15.0098 18.4787 15.0186 18.468 15.025C17.87 15.369 17.248 15.66 16.595 15.902C16.585 15.9056 16.5758 15.9114 16.5682 15.9188C16.5606 15.9263 16.5546 15.9353 16.5507 15.9452C16.5468 15.9551 16.5451 15.9658 16.5457 15.9764C16.5463 15.9871 16.5491 15.9975 16.554 16.007C16.914 16.694 17.326 17.348 17.779 17.969C17.7884 17.9817 17.8015 17.9912 17.8166 17.9963C17.8316 18.0013 17.8478 18.0015 17.863 17.997C20.0173 17.3486 22.0466 16.3407 23.865 15.016C23.8739 15.0098 23.8813 15.0017 23.8868 14.9924C23.8923 14.9831 23.8958 14.9727 23.897 14.962C24.397 9.86797 23.059 5.44197 20.348 1.51997C20.3413 1.50723 20.3303 1.49729 20.317 1.49197ZM8.01999 12.278C6.83799 12.278 5.86299 11.209 5.86299 9.89797C5.86299 8.58597 6.81899 7.51797 8.01999 7.51797C9.22999 7.51797 10.196 8.59497 10.177 9.89797C10.177 11.21 9.22099 12.278 8.01999 12.278V12.278ZM15.995 12.278C14.812 12.278 13.838 11.209 13.838 9.89797C13.838 8.58597 14.793 7.51797 15.995 7.51797C17.205 7.51797 18.171 8.59497 18.152 9.89797C18.152 11.21 17.206 12.278 15.995 12.278V12.278Z" fill="white"/>
</svg>
