<svg width="25" height="24" viewBox="0 0 25 24" fill="none" xmlns="http://www.w3.org/2000/svg">
<path d="M25.418 12V12.03C25.418 12.573 25.262 13.08 24.993 13.509L25 13.497C24.7309 13.9336 24.346 14.287 23.888 14.518L23.872 14.525C23.98 14.928 24.042 15.39 24.042 15.868V15.886V15.885C24.0347 17.3817 23.4968 18.8274 22.524 19.965L22.531 19.956C21.4444 21.2552 20.052 22.2641 18.479 22.892L18.41 22.916C16.775 23.602 14.875 24.001 12.881 24.001L12.728 24H12.736L12.59 24.001C10.599 24.001 8.70201 23.602 6.97301 22.88L7.06901 22.916C5.47815 22.2915 4.06848 21.2795 2.96801 19.972L2.95501 19.956C1.98653 18.8207 1.45155 17.3791 1.44501 15.887V15.88C1.44501 15.41 1.50101 14.952 1.60601 14.514L1.59801 14.554C1.12549 14.3236 0.725529 13.9676 0.442007 13.525L0.435007 13.514C0.146199 13.0627 -0.00655241 12.5377 -0.00499306 12.002C-0.00499306 11.225 0.309007 10.521 0.818007 10.011C1.07063 9.74818 1.37378 9.53919 1.70922 9.39656C2.04467 9.25393 2.40549 9.18059 2.77001 9.18095H2.82001H2.81701H2.85601C3.65501 9.18095 4.37501 9.52395 4.87501 10.07L4.87701 10.072C7.02722 8.59919 9.5669 7.79927 12.173 7.77395H12.181L13.827 0.383953C13.8556 0.26135 13.9314 0.154983 14.038 0.0879531L14.04 0.0869531C14.0934 0.0493934 14.1542 0.0236361 14.2184 0.0113942C14.2825 -0.000847621 14.3485 0.000706456 14.412 0.0159531L14.409 0.0149531L19.643 1.16395C19.817 0.810953 20.078 0.524953 20.4 0.325953L20.409 0.320953C20.728 0.120953 21.116 0.00195312 21.532 0.00195312C22.117 0.00195312 22.648 0.236953 23.033 0.618953C23.418 0.987953 23.657 1.50695 23.657 2.08195V2.11795V2.11595V2.14595C23.657 2.72395 23.418 3.24595 23.033 3.61795L23.032 3.61895C22.835 3.81722 22.6007 3.97446 22.3425 4.08157C22.0843 4.18868 21.8075 4.24353 21.528 4.24295C20.967 4.24345 20.4287 4.02158 20.031 3.62595C19.8355 3.43623 19.6801 3.20912 19.5741 2.95813C19.4681 2.70715 19.4137 2.4374 19.414 2.16495V2.12695V2.12895L14.676 1.07895L13.201 7.77295C15.948 7.79295 18.494 8.63795 20.608 10.073L20.561 10.043C20.8235 9.76904 21.1389 9.55117 21.4879 9.4025C21.837 9.25383 22.2126 9.17744 22.592 9.17795C23.372 9.17795 24.078 9.49495 24.589 10.008C25.098 10.504 25.414 11.197 25.414 11.963V12.002V12H25.418ZM5.92901 14.822V14.854C5.92901 15.43 6.16501 15.951 6.54601 16.325C6.73495 16.5226 6.96203 16.6797 7.21351 16.787C7.46498 16.8943 7.73561 16.9494 8.00901 16.949H8.04501H8.04301C8.60723 16.9484 9.14818 16.7241 9.54714 16.3251C9.94611 15.9261 10.1705 15.3852 10.171 14.821V14.787C10.171 14.212 9.93201 13.693 9.54701 13.325L9.54601 13.324C9.35432 13.1283 9.12543 12.9729 8.87282 12.8669C8.6202 12.7609 8.34895 12.7066 8.07501 12.707H8.04101H8.04301C7.48397 12.7117 6.94914 12.9357 6.55373 13.331C6.15832 13.7262 5.93397 14.2609 5.92901 14.82V14.821V14.822ZM17.418 19.858C17.4675 19.8101 17.5069 19.7528 17.5339 19.6894C17.5608 19.626 17.5746 19.5578 17.5746 19.489C17.5746 19.4201 17.5608 19.3519 17.5339 19.2885C17.5069 19.2251 17.4675 19.1678 17.418 19.12C17.3735 19.0748 17.3204 19.0389 17.2618 19.0145C17.2033 18.9901 17.1404 18.9777 17.077 18.978H17.063H17.064H17.056C16.922 18.9778 16.793 19.0285 16.695 19.12C16.2211 19.5614 15.6352 19.8644 15.001 19.996L14.978 20C13.4667 20.3831 11.883 20.3783 10.374 19.986L10.438 20C9.79377 19.8709 9.198 19.5655 8.71701 19.118L8.71901 19.12C8.62116 19.0284 8.49204 18.9776 8.35801 18.978H8.33901C8.27559 18.9778 8.21278 18.9903 8.15424 19.0147C8.09569 19.0391 8.04258 19.0748 7.99801 19.12C7.9478 19.1638 7.90755 19.2179 7.87996 19.2787C7.85236 19.3394 7.83806 19.4053 7.83801 19.472V19.486C7.83801 19.632 7.89901 19.764 7.99801 19.858C8.46699 20.2997 9.03166 20.6273 9.64801 20.815L9.67801 20.823C10.2263 21.022 10.7947 21.1608 11.373 21.237L11.416 21.242C11.86 21.2846 12.29 21.306 12.706 21.306C13.122 21.306 13.552 21.2846 13.996 21.242C14.609 21.1629 15.2113 21.0164 15.792 20.805L15.734 20.824C16.3632 20.6375 16.9402 20.3068 17.419 19.858L17.417 19.86L17.418 19.858ZM17.376 16.95H17.41C17.985 16.95 18.504 16.711 18.872 16.326L18.873 16.325C19.254 15.951 19.49 15.43 19.49 14.854V14.82V14.822C19.4853 14.2629 19.2612 13.7281 18.866 13.3327C18.4708 12.9373 17.936 12.7129 17.377 12.708H17.344C16.768 12.708 16.247 12.944 15.873 13.325C15.6754 13.5139 15.5182 13.741 15.411 13.9925C15.3037 14.2439 15.2486 14.5146 15.249 14.788V14.824V14.822C15.2495 15.3862 15.4739 15.9271 15.8729 16.3261C16.2718 16.7251 16.8128 16.9494 17.377 16.95H17.376Z" fill="white"/>
</svg>
