<svg width="21" height="21" viewBox="0 0 21 21" fill="none" xmlns="http://www.w3.org/2000/svg">
<path fill-rule="evenodd" clip-rule="evenodd" d="M9.5 2C7.51088 2 5.60322 2.79018 4.1967 4.1967C2.79018 5.60322 2 7.51088 2 9.5C2 11.4891 2.79018 13.3968 4.1967 14.8033C5.60322 16.2098 7.51088 17 9.5 17C11.4891 17 13.3968 16.2098 14.8033 14.8033C16.2098 13.3968 17 11.4891 17 9.5C17 7.51088 16.2098 5.60322 14.8033 4.1967C13.3968 2.79018 11.4891 2 9.5 2ZM2.78249 2.78249C4.56408 1.00089 6.98044 0 9.5 0C12.0196 0 14.4359 1.00089 16.2175 2.78249C17.9991 4.56408 19 6.98044 19 9.5C19 11.6823 18.2491 13.7873 16.8904 15.4693L20.7077 19.2935L19.2923 20.7065L15.4769 16.8843C13.7936 18.2469 11.6856 19 9.5 19C6.98044 19 4.56408 17.9991 2.78249 16.2175C1.00089 14.4359 0 12.0196 0 9.5C0 6.98044 1.00089 4.56408 2.78249 2.78249Z" fill="white"/>
</svg>
